<?xml version="1.0" encoding="UTF-8" standalone="no"?>
<!-- Generator: Gravit.io -->
<svg xmlns="http://www.w3.org/2000/svg" xmlns:xlink="http://www.w3.org/1999/xlink" style="isolation:isolate" viewBox="0 0 100 100" width="100pt" height="100pt"><path d=" M 6.25 50 C 6.25 38.4 10.86 27.27 19.06 19.06 C 27.27 10.86 38.4 6.25 50 6.25 C 61.6 6.25 72.73 10.86 80.94 19.06 C 89.14 27.27 93.75 38.4 93.75 50 C 93.75 61.6 89.14 72.73 80.94 80.94 C 72.73 89.14 61.6 93.75 50 93.75 C 38.4 93.75 27.27 89.14 19.06 80.94 C 10.86 72.73 6.25 61.6 6.25 50 Z  M 11.25 50 C 11.25 39.73 15.34 29.86 22.6 22.6 C 29.86 15.34 39.73 11.25 50 11.25 C 60.27 11.25 70.14 15.34 77.4 22.6 C 84.66 29.86 88.75 39.73 88.75 50 C 88.75 60.27 84.66 70.14 77.4 77.4 C 70.14 84.66 60.27 88.75 50 88.75 C 39.73 88.75 29.86 84.66 22.6 77.4 C 15.34 70.14 11.25 60.27 11.25 50 Z " fill-rule="evenodd" fill="rgb(0,0,0)"/><path d=" M 66.61 52.57 C 66.99 52.2 67.5 51.99 68.03 52 C 68.56 52.01 69.06 52.23 69.43 52.61 C 69.8 52.99 70.01 53.5 70 54.03 C 69.99 54.56 69.77 55.06 69.39 55.43 L 50 74.29 L 30.61 55.43 C 30.23 55.06 30.01 54.56 30 54.03 C 29.99 53.5 30.2 52.99 30.57 52.61 C 30.94 52.23 31.44 52.01 31.97 52 C 32.5 51.99 33.01 52.2 33.39 52.57 L 48 67 L 48 27 C 48 26.47 48.21 25.96 48.59 25.59 C 48.96 25.21 49.47 25 50 25 C 50.53 25 51.04 25.21 51.41 25.59 C 51.79 25.96 52 26.47 52 27 L 52 67 Q 52 67.53 66.61 52.57 Z " fill="rgb(0,0,0)"/></svg>